<svg width="500" height="682" viewBox="0 0 500 682" fill="none" xmlns="http://www.w3.org/2000/svg">
<path d="M412 665C412 678 339.246 682 249.5 682C159.754 682 87 677.5 87 665C87 652.5 159.754 648 249.5 648C339.246 648 412 652 412 665Z" fill="#754620"/>
<path d="M490 370C490 538 369.5 622.5 250.5 622.5C130 622.5 9.99984 537.5 10.4998 370C10.4998 308.428 53.9936 238.894 81.5 177.5C123.076 84.7015 153.5 10.5 250 10.5C346.5 10.5 376.279 84.7015 418 177.5C445.602 238.894 490 308.428 490 370Z" fill="#4C572F"/>
<path d="M81.5 177.5C53.9936 238.894 10.4998 308.428 10.4998 370C9.99984 537.5 130 622.5 250.5 622.5C369.5 622.5 490 538 490 370C490 308.428 445.602 238.894 418 177.5M81.5 177.5C123.076 84.7015 153.5 10.5 250 10.5C346.5 10.5 376.279 84.7015 418 177.5M81.5 177.5H418" stroke="#754620" stroke-width="20"/>
<path d="M490 370C490 538 369.5 622.5 250.5 622.5C130 622.5 9.99984 537.5 10.4998 370C10.4998 308.428 53.9936 238.894 81.5 177.5C123.076 84.7015 153.5 10.5 250 10.5C346.5 10.5 376.279 84.7015 418 177.5C445.602 238.894 490 308.428 490 370Z" fill="#61723B"/>
<path d="M451.5 369C451.5 516.961 349.976 586 250.21 586C149.187 586 47.5808 516.02 48 368.5C48 314.272 100.439 231.571 123.5 177.5C158.356 95.7706 181.082 47 249.791 47C318.5 47 341.523 95.7706 376.5 177.5C399.641 231.571 451.5 314.772 451.5 369Z" fill="#CAE281"/>
<path fill-rule="evenodd" clip-rule="evenodd" d="M288.778 98.9232C311.542 114.397 324.34 145.595 341.694 187.897C343.57 192.47 345.499 197.173 347.5 202C353.548 216.591 362.776 234.138 372.581 252.784C393.922 293.365 418 339.152 418 371C418 497.756 323.102 549.944 250 550V585.997C250.403 585.999 250.807 586 251.21 586C350.976 586 452.5 516.961 452.5 369C452.5 329.669 425.22 275.098 401.403 227.453C392.382 209.407 383.857 192.354 377.5 177.5C357.358 130.435 341.18 94.3003 317.96 72.1144L288.778 98.9232Z" fill="#61723B" fill-opacity="0.25"/>
<path d="M417 371C417 497.824 322 550 248.882 550C177.5 550 81.6518 497.446 81.9999 371C81.9999 324.519 132.354 248.346 151.5 202C180.439 131.946 193.569 88 248.534 88C303.5 88 317.461 131.946 346.5 202C365.712 248.346 417 324.519 417 371Z" fill="#F4F4A9"/>
<path fill-rule="evenodd" clip-rule="evenodd" d="M82 370.866C81.9999 370.911 81.9999 370.956 81.9999 371C81.9986 371.474 81.9986 371.948 82 372.42V370.866ZM249 550C322.102 549.944 417 497.756 417 371C417 339.152 392.922 293.365 371.581 252.784C361.776 234.138 352.548 216.591 346.5 202C344.499 197.173 342.57 192.47 340.694 187.897C315.419 126.287 299.808 88.2318 249 88.0011V550Z" fill="#CAE281" fill-opacity="0.25"/>
<path fill-rule="evenodd" clip-rule="evenodd" d="M82 370.866L81.9999 371C81.9986 371.474 81.9986 371.948 82 372.42V370.866ZM249 550C322.102 549.944 417 497.756 417 371C417 339.818 393.917 295.272 372.922 255.334C377.509 268.708 380 283.062 380 298C380 370.349 321.573 429 249.5 429C249.333 429 249.167 429 249 428.999V550Z" fill="#CAE281"/>
<ellipse cx="249.5" cy="367.5" rx="125.5" ry="128.5" fill="#CC9C56"/>
<path fill-rule="evenodd" clip-rule="evenodd" d="M269.741 378.894C271.426 374.745 273.171 370.447 275 366C287.249 336.213 300.427 285.968 293.912 247.278C341.304 265.642 375 312.542 375 367.5C375 438.469 318.812 496 249.5 496C219.613 496 192.165 485.303 170.611 467.444C234.366 466.009 246.096 437.123 269.741 378.894Z" fill="#754620" fill-opacity="0.15"/>
<ellipse cx="206.858" cy="324.291" rx="35.711" ry="58.3854" transform="rotate(35.2455 206.858 324.291)" fill="#E4C794"/>
<path d="M370 367.5C370 435.819 315.94 491 249.5 491C183.06 491 129 435.819 129 367.5C129 299.181 183.06 244 249.5 244C315.94 244 370 299.181 370 367.5Z" stroke="#754620" stroke-width="10"/>
</svg>
