<svg width="225" height="40" viewBox="0 0 225 40" fill="none" xmlns="http://www.w3.org/2000/svg">
<path d="M5.392 35.58V23.196H6.896L7.056 24.172H7.088C7.48267 23.852 7.90933 23.5747 8.368 23.34C8.82667 23.1053 9.30667 22.988 9.808 22.988C10.544 22.988 11.1733 23.1747 11.696 23.548C12.2187 23.9213 12.6133 24.444 12.88 25.116C13.1467 25.7773 13.28 26.5613 13.28 27.468C13.28 28.4707 13.0987 29.3293 12.736 30.044C12.384 30.7587 11.92 31.3027 11.344 31.676C10.768 32.0493 10.1493 32.236 9.488 32.236C9.104 32.236 8.71467 32.1507 8.32 31.98C7.92533 31.7987 7.54667 31.548 7.184 31.228L7.232 32.732V35.58H5.392ZM9.136 30.684C9.56267 30.684 9.94133 30.5613 10.272 30.316C10.6133 30.0707 10.88 29.7133 11.072 29.244C11.2747 28.764 11.376 28.1827 11.376 27.5C11.376 26.8813 11.3013 26.3533 11.152 25.916C11.0133 25.468 10.7947 25.1267 10.496 24.892C10.1973 24.6467 9.80267 24.524 9.312 24.524C8.97067 24.524 8.62933 24.6147 8.288 24.796C7.95733 24.9667 7.60533 25.2333 7.232 25.596V29.9C7.57333 30.188 7.90933 30.3907 8.24 30.508C8.57067 30.6253 8.86933 30.684 9.136 30.684ZM18.3661 32.236C17.6408 32.236 16.9581 32.0547 16.3181 31.692C15.6888 31.3187 15.1768 30.7907 14.7821 30.108C14.3981 29.4147 14.2061 28.5827 14.2061 27.612C14.2061 26.6307 14.3981 25.7987 14.7821 25.116C15.1768 24.4227 15.6888 23.8947 16.3181 23.532C16.9581 23.1693 17.6408 22.988 18.3661 22.988C18.8995 22.988 19.4168 23.0947 19.9181 23.308C20.4195 23.5107 20.8621 23.8093 21.2461 24.204C21.6301 24.5987 21.9341 25.084 22.1581 25.66C22.3821 26.2253 22.4941 26.876 22.4941 27.612C22.4941 28.5827 22.2968 29.4147 21.9021 30.108C21.5181 30.7907 21.0115 31.3187 20.3821 31.692C19.7635 32.0547 19.0915 32.236 18.3661 32.236ZM18.3661 30.7C18.8248 30.7 19.2195 30.572 19.5501 30.316C19.8915 30.06 20.1528 29.7027 20.3341 29.244C20.5155 28.7747 20.6061 28.2307 20.6061 27.612C20.6061 26.9933 20.5155 26.4547 20.3341 25.996C20.1528 25.5267 19.8915 25.164 19.5501 24.908C19.2195 24.6413 18.8248 24.508 18.3661 24.508C17.8968 24.508 17.4915 24.6413 17.1501 24.908C16.8195 25.164 16.5635 25.5267 16.3821 25.996C16.2008 26.4547 16.1101 26.9933 16.1101 27.612C16.1101 28.2307 16.2008 28.7747 16.3821 29.244C16.5635 29.7027 16.8195 30.06 17.1501 30.316C17.4915 30.572 17.8968 30.7 18.3661 30.7ZM25.2856 32.012L22.9176 23.196H24.7736L25.9416 27.964C26.027 28.3907 26.107 28.812 26.1816 29.228C26.2563 29.6333 26.3363 30.0493 26.4216 30.476H26.5016C26.587 30.0493 26.6723 29.6333 26.7576 29.228C26.8536 28.812 26.955 28.3907 27.0616 27.964L28.3096 23.196H30.0056L31.2696 27.964C31.3763 28.3907 31.4776 28.812 31.5736 29.228C31.6696 29.6333 31.7656 30.0493 31.8616 30.476H31.9416C32.027 30.0493 32.107 29.6333 32.1816 29.228C32.267 28.812 32.3523 28.3907 32.4376 27.964L33.5736 23.196H35.3176L33.0296 32.012H30.8216L29.7016 27.66C29.595 27.244 29.499 26.828 29.4136 26.412C29.3283 25.996 29.2376 25.564 29.1416 25.116H29.0616C28.9656 25.564 28.875 26.0013 28.7896 26.428C28.715 26.844 28.6243 27.26 28.5176 27.676L27.4296 32.012H25.2856ZM40.027 32.236C39.227 32.236 38.5017 32.0547 37.851 31.692C37.2003 31.3187 36.683 30.7907 36.299 30.108C35.915 29.4147 35.723 28.5827 35.723 27.612C35.723 26.8973 35.835 26.2573 36.059 25.692C36.283 25.116 36.587 24.6307 36.971 24.236C37.355 23.8307 37.787 23.5213 38.267 23.308C38.747 23.0947 39.2377 22.988 39.739 22.988C40.5177 22.988 41.1737 23.164 41.707 23.516C42.2403 23.8573 42.6457 24.3427 42.923 24.972C43.2003 25.5907 43.339 26.316 43.339 27.148C43.339 27.3293 43.3283 27.5053 43.307 27.676C43.2963 27.836 43.275 27.9747 43.243 28.092H37.531C37.5843 28.6467 37.7283 29.1267 37.963 29.532C38.2083 29.9267 38.523 30.236 38.907 30.46C39.3017 30.6733 39.7497 30.78 40.251 30.78C40.6457 30.78 41.0137 30.7213 41.355 30.604C41.6963 30.4867 42.027 30.3267 42.347 30.124L42.987 31.292C42.5817 31.5587 42.1283 31.7827 41.627 31.964C41.1363 32.1453 40.603 32.236 40.027 32.236ZM37.515 26.812H41.739C41.739 26.0653 41.5683 25.484 41.227 25.068C40.8963 24.652 40.411 24.444 39.771 24.444C39.4083 24.444 39.067 24.5347 38.747 24.716C38.427 24.8973 38.155 25.164 37.931 25.516C37.7177 25.868 37.579 26.3 37.515 26.812ZM44.7695 32.012V23.196H46.2735L46.4335 24.78H46.4655C46.7855 24.2147 47.1642 23.7773 47.6015 23.468C48.0388 23.148 48.4975 22.988 48.9775 22.988C49.1908 22.988 49.3722 23.004 49.5215 23.036C49.6708 23.068 49.8148 23.1107 49.9535 23.164L49.6335 24.78C49.4735 24.7267 49.3295 24.6893 49.2015 24.668C49.0735 24.6467 48.9188 24.636 48.7375 24.636C48.3855 24.636 48.0122 24.78 47.6175 25.068C47.2228 25.3453 46.8868 25.836 46.6095 26.54V32.012H44.7695ZM54.1064 32.236C53.3064 32.236 52.581 32.0547 51.9304 31.692C51.2797 31.3187 50.7624 30.7907 50.3784 30.108C49.9944 29.4147 49.8024 28.5827 49.8024 27.612C49.8024 26.8973 49.9144 26.2573 50.1384 25.692C50.3624 25.116 50.6664 24.6307 51.0504 24.236C51.4344 23.8307 51.8664 23.5213 52.3464 23.308C52.8264 23.0947 53.317 22.988 53.8184 22.988C54.597 22.988 55.253 23.164 55.7864 23.516C56.3197 23.8573 56.725 24.3427 57.0024 24.972C57.2797 25.5907 57.4184 26.316 57.4184 27.148C57.4184 27.3293 57.4077 27.5053 57.3864 27.676C57.3757 27.836 57.3544 27.9747 57.3224 28.092H51.6104C51.6637 28.6467 51.8077 29.1267 52.0424 29.532C52.2877 29.9267 52.6024 30.236 52.9864 30.46C53.381 30.6733 53.829 30.78 54.3304 30.78C54.725 30.78 55.093 30.7213 55.4344 30.604C55.7757 30.4867 56.1064 30.3267 56.4264 30.124L57.0664 31.292C56.661 31.5587 56.2077 31.7827 55.7064 31.964C55.2157 32.1453 54.6824 32.236 54.1064 32.236ZM51.5944 26.812H55.8184C55.8184 26.0653 55.6477 25.484 55.3064 25.068C54.9757 24.652 54.4904 24.444 53.8504 24.444C53.4877 24.444 53.1464 24.5347 52.8264 24.716C52.5064 24.8973 52.2344 25.164 52.0104 25.516C51.797 25.868 51.6584 26.3 51.5944 26.812ZM61.8729 32.236C61.1475 32.236 60.5129 32.0547 59.9689 31.692C59.4249 31.3293 59.0035 30.8013 58.7049 30.108C58.4062 29.4147 58.2569 28.5827 58.2569 27.612C58.2569 26.6627 58.4329 25.8413 58.7849 25.148C59.1475 24.4547 59.6115 23.9213 60.1769 23.548C60.7529 23.1747 61.3662 22.988 62.0169 22.988C62.5289 22.988 62.9609 23.0787 63.3129 23.26C63.6755 23.4307 64.0329 23.6707 64.3849 23.98L64.3209 22.524V19.26H66.1609V32.012H64.6569L64.4969 31.02H64.4489C64.1182 31.3613 63.7342 31.6493 63.2969 31.884C62.8595 32.1187 62.3849 32.236 61.8729 32.236ZM62.3209 30.684C62.6942 30.684 63.0409 30.5987 63.3609 30.428C63.6809 30.2573 64.0009 29.9853 64.3209 29.612V25.324C64.0009 25.036 63.6809 24.8333 63.3609 24.716C63.0409 24.588 62.7155 24.524 62.3849 24.524C61.9795 24.524 61.6062 24.652 61.2649 24.908C60.9342 25.1533 60.6675 25.5053 60.4649 25.964C60.2622 26.412 60.1609 26.956 60.1609 27.596C60.1609 28.2573 60.2462 28.8227 60.4169 29.292C60.5875 29.7507 60.8329 30.0973 61.1529 30.332C61.4835 30.5667 61.8729 30.684 62.3209 30.684ZM75.3367 32.236C74.9421 32.236 74.5314 32.1347 74.1047 31.932C73.6781 31.7293 73.2834 31.452 72.9207 31.1H72.8567L72.6967 32.012H71.2407V19.26H73.0807V22.636L73.0167 24.14C73.4007 23.7987 73.8167 23.5213 74.2647 23.308C74.7234 23.0947 75.1821 22.988 75.6407 22.988C76.3874 22.988 77.0167 23.1747 77.5287 23.548C78.0514 23.9107 78.4461 24.428 78.7127 25.1C78.9901 25.772 79.1287 26.5613 79.1287 27.468C79.1287 28.4707 78.9474 29.3293 78.5847 30.044C78.2327 30.7587 77.7687 31.3027 77.1927 31.676C76.6167 32.0493 75.9981 32.236 75.3367 32.236ZM74.9847 30.684C75.4114 30.684 75.7901 30.5613 76.1207 30.316C76.4621 30.0707 76.7287 29.7133 76.9207 29.244C77.1234 28.764 77.2247 28.1827 77.2247 27.5C77.2247 26.8813 77.1501 26.3533 77.0007 25.916C76.8621 25.468 76.6434 25.1267 76.3447 24.892C76.0461 24.6467 75.6514 24.524 75.1607 24.524C74.8194 24.524 74.4781 24.6147 74.1367 24.796C73.7954 24.9667 73.4434 25.2333 73.0807 25.596V29.9C73.4114 30.188 73.7421 30.3907 74.0727 30.508C74.4141 30.6253 74.7181 30.684 74.9847 30.684ZM80.923 35.692C80.6883 35.692 80.4803 35.676 80.299 35.644C80.1283 35.612 79.963 35.5693 79.803 35.516L80.155 34.076C80.2403 34.0973 80.3417 34.124 80.459 34.156C80.5763 34.188 80.6937 34.204 80.811 34.204C81.291 34.204 81.675 34.044 81.963 33.724C82.251 33.4147 82.475 33.0253 82.635 32.556L82.827 31.948L79.339 23.196H81.211L82.827 27.74C82.9657 28.1347 83.099 28.5453 83.227 28.972C83.3657 29.388 83.5043 29.804 83.643 30.22H83.723C83.8297 29.8147 83.9417 29.3987 84.059 28.972C84.1763 28.5453 84.2937 28.1347 84.411 27.74L85.835 23.196H87.611L84.379 32.54C84.155 33.1693 83.8883 33.7187 83.579 34.188C83.2803 34.668 82.9177 35.036 82.491 35.292C82.0643 35.5587 81.5417 35.692 80.923 35.692Z" fill="black"/>
<g clip-path="url(#clip0_26_221)">
<path fill-rule="evenodd" clip-rule="evenodd" d="M120.414 2.4576C120.901 2.28575 121.25 1.81895 121.25 1.27006C121.25 0.575249 120.69 0.0119934 120 0.0119934C119.31 0.0119934 118.75 0.575249 118.75 1.27006C118.75 1.82103 119.102 2.28928 119.592 2.45954L117.099 6.43476L114.194 3.82642C114.529 3.6008 114.75 3.21623 114.75 2.77974C114.75 2.08493 114.19 1.52167 113.5 1.52167C112.81 1.52167 112.25 2.08493 112.25 2.77974C112.25 3.47454 112.81 4.0378 113.5 4.0378V10.8313H126.5V4.0378C127.19 4.0378 127.75 3.47454 127.75 2.77974C127.75 2.08493 127.19 1.52167 126.5 1.52167C125.81 1.52167 125.25 2.08493 125.25 2.77974C125.25 3.21792 125.473 3.60377 125.81 3.82901L122.908 6.43476L120.414 2.4576Z" fill="#212121"/>
<path fill-rule="evenodd" clip-rule="evenodd" d="M108 13.3475H120H132V30.9531L120 38.7964L108 30.9531V13.3475ZM120 34.9057L129 29.0232V21.2154L120 16.6001L111 21.2154V29.0232L120 34.9057ZM117 24.2926C117 25.1959 116.272 25.9281 115.375 25.9281C114.478 25.9281 113.75 25.1959 113.75 24.2926C113.75 23.3894 114.478 22.6572 115.375 22.6572C116.272 22.6572 117 23.3894 117 24.2926ZM123 24.2926C123 25.1959 123.728 25.9281 124.625 25.9281C125.522 25.9281 126.25 25.1959 126.25 24.2926C126.25 23.3894 125.522 22.6572 124.625 22.6572C123.728 22.6572 123 23.3894 123 24.2926Z" fill="#212121"/>
</g>
<path d="M140.466 5.93199H143.772V6.57999H140.466V5.93199ZM141.084 4.45599H143.616V5.10399H141.084V4.45599ZM141.786 3.41199H142.488V9.04599H141.786V3.41199ZM141.588 6.26799L142.146 6.43599C142.034 6.75199 141.896 7.05799 141.732 7.35399C141.572 7.64599 141.392 7.91399 141.192 8.15799C140.992 8.40199 140.778 8.60799 140.55 8.77599C140.514 8.71999 140.466 8.65599 140.406 8.58399C140.35 8.51599 140.292 8.44999 140.232 8.38599C140.172 8.32199 140.116 8.26799 140.064 8.22399C140.284 8.09199 140.49 7.92199 140.682 7.71399C140.878 7.50599 141.054 7.27799 141.21 7.02999C141.366 6.77799 141.492 6.52399 141.588 6.26799ZM142.71 6.29799C142.794 6.53399 142.9 6.76999 143.028 7.00599C143.156 7.23799 143.298 7.45599 143.454 7.65999C143.614 7.86399 143.774 8.03399 143.934 8.16999C143.882 8.21399 143.822 8.26799 143.754 8.33199C143.69 8.39599 143.628 8.46399 143.568 8.53599C143.508 8.60799 143.458 8.67399 143.418 8.73399C143.25 8.56199 143.09 8.35399 142.938 8.10999C142.79 7.86199 142.654 7.59599 142.53 7.31199C142.406 7.02399 142.3 6.73599 142.212 6.44799L142.71 6.29799ZM140.874 3.71199L141.534 3.82599C141.474 4.20999 141.388 4.58199 141.276 4.94199C141.164 5.29799 141.028 5.59599 140.868 5.83599C140.828 5.79999 140.772 5.75999 140.7 5.71599C140.632 5.66799 140.562 5.62399 140.49 5.58399C140.422 5.53999 140.36 5.50399 140.304 5.47599C140.452 5.26399 140.572 4.99999 140.664 4.68399C140.76 4.36799 140.83 4.04399 140.874 3.71199ZM138.246 4.53399H140.418V5.19999H138.246V4.53399ZM139.026 3.41199H139.734V9.04599H139.026V3.41199ZM139.02 5.02599L139.404 5.18199C139.364 5.42999 139.312 5.68599 139.248 5.94999C139.184 6.20999 139.11 6.46599 139.026 6.71799C138.946 6.96599 138.858 7.19799 138.762 7.41399C138.666 7.62999 138.566 7.81399 138.462 7.96599C138.442 7.89799 138.412 7.81999 138.372 7.73199C138.332 7.64399 138.29 7.55599 138.246 7.46799C138.202 7.37999 138.16 7.30399 138.12 7.23999C138.216 7.11599 138.31 6.96799 138.402 6.79599C138.494 6.61999 138.58 6.43199 138.66 6.23199C138.74 6.03199 138.81 5.82799 138.87 5.61999C138.934 5.41199 138.984 5.21399 139.02 5.02599ZM139.698 5.33199C139.734 5.37599 139.786 5.44999 139.854 5.55399C139.926 5.65799 140.002 5.77199 140.082 5.89599C140.162 6.01999 140.236 6.13599 140.304 6.24399C140.372 6.35199 140.418 6.42799 140.442 6.47199L140.022 6.95799C139.99 6.86599 139.946 6.75799 139.89 6.63399C139.838 6.50999 139.78 6.38199 139.716 6.24999C139.652 6.11799 139.59 5.99399 139.53 5.87799C139.474 5.76199 139.424 5.66599 139.38 5.58999L139.698 5.33199ZM148.284 3.80799L148.758 3.41199C148.85 3.47199 148.946 3.54199 149.046 3.62199C149.15 3.70199 149.246 3.78199 149.334 3.86199C149.426 3.94199 149.5 4.01399 149.556 4.07799L149.046 4.51599C148.998 4.44399 148.93 4.36799 148.842 4.28799C148.758 4.20399 148.666 4.11999 148.566 4.03599C148.47 3.95199 148.376 3.87599 148.284 3.80799ZM144.306 4.43799H149.706V5.13999H144.306V4.43799ZM144.534 5.82399H147.132V6.51999H144.534V5.82399ZM145.44 6.21999H146.16V8.25399H145.44V6.21999ZM144.306 8.15799C144.546 8.11799 144.828 8.07199 145.152 8.01999C145.48 7.96399 145.826 7.90399 146.19 7.83999C146.558 7.77599 146.924 7.70999 147.288 7.64199L147.336 8.28399C147.008 8.35599 146.676 8.42799 146.34 8.49999C146.004 8.56799 145.68 8.63399 145.368 8.69799C145.056 8.76599 144.768 8.82799 144.504 8.88399L144.306 8.15799ZM147.258 3.43599H148.032C148.02 3.93199 148.026 4.41599 148.05 4.88799C148.078 5.35999 148.122 5.80199 148.182 6.21399C148.242 6.62599 148.314 6.98799 148.398 7.29999C148.482 7.61199 148.574 7.85599 148.674 8.03199C148.778 8.20799 148.888 8.29599 149.004 8.29599C149.072 8.29599 149.122 8.20999 149.154 8.03799C149.19 7.86599 149.216 7.58999 149.232 7.20999C149.316 7.29399 149.416 7.37599 149.532 7.45599C149.652 7.53599 149.762 7.59399 149.862 7.62999C149.83 8.00999 149.776 8.30399 149.7 8.51199C149.628 8.71599 149.53 8.85599 149.406 8.93199C149.286 9.01199 149.13 9.05199 148.938 9.05199C148.722 9.05199 148.53 8.97799 148.362 8.82999C148.194 8.68199 148.048 8.47799 147.924 8.21799C147.8 7.95399 147.696 7.64399 147.612 7.28799C147.528 6.93199 147.46 6.54599 147.408 6.12999C147.356 5.70999 147.318 5.27199 147.294 4.81599C147.27 4.35999 147.258 3.89999 147.258 3.43599ZM150.558 8.16399C150.914 8.15199 151.326 8.13999 151.794 8.12799C152.266 8.11199 152.76 8.09399 153.276 8.07399C153.796 8.05399 154.308 8.03399 154.812 8.01399L154.788 8.67399C154.3 8.70199 153.804 8.72599 153.3 8.74599C152.8 8.76999 152.324 8.79199 151.872 8.81199C151.42 8.83599 151.012 8.85599 150.648 8.87199L150.558 8.16399ZM150.528 6.38199H155.514V7.05399H150.528V6.38199ZM151.596 5.22399H154.41V5.88399H151.596V5.22399ZM151.992 6.81999L152.814 7.04199C152.722 7.22999 152.624 7.42199 152.52 7.61799C152.42 7.80999 152.32 7.99399 152.22 8.16999C152.124 8.34599 152.032 8.50199 151.944 8.63799L151.314 8.42799C151.394 8.27999 151.478 8.11399 151.566 7.92999C151.654 7.74199 151.734 7.55199 151.806 7.35999C151.882 7.16399 151.944 6.98399 151.992 6.81999ZM153.486 7.43799L154.116 7.10199C154.296 7.25799 154.474 7.42599 154.65 7.60599C154.826 7.78599 154.988 7.96799 155.136 8.15199C155.284 8.33199 155.404 8.49799 155.496 8.64999L154.824 9.05799C154.744 8.90599 154.63 8.73399 154.482 8.54199C154.338 8.35399 154.178 8.16199 154.002 7.96599C153.83 7.76999 153.658 7.59399 153.486 7.43799ZM152.994 4.11399C152.834 4.34199 152.628 4.57599 152.376 4.81599C152.124 5.05199 151.844 5.27599 151.536 5.48799C151.228 5.69999 150.908 5.88599 150.576 6.04599C150.552 5.98599 150.514 5.91999 150.462 5.84799C150.414 5.77199 150.362 5.69999 150.306 5.63199C150.254 5.55999 150.202 5.49799 150.15 5.44599C150.494 5.29399 150.824 5.10599 151.14 4.88199C151.456 4.65399 151.738 4.41399 151.986 4.16199C152.238 3.90599 152.438 3.65999 152.586 3.42399H153.342C153.502 3.64399 153.68 3.85199 153.876 4.04799C154.072 4.24399 154.28 4.42399 154.5 4.58799C154.72 4.74799 154.946 4.89199 155.178 5.01999C155.414 5.14399 155.652 5.24999 155.892 5.33799C155.804 5.42599 155.72 5.52999 155.64 5.64999C155.56 5.76999 155.488 5.88399 155.424 5.99199C155.124 5.85199 154.82 5.67999 154.512 5.47599C154.204 5.27199 153.916 5.05199 153.648 4.81599C153.384 4.57999 153.166 4.34599 152.994 4.11399ZM158.46 8.16999H161.874V8.87799H158.46V8.16999ZM158.706 5.27199H161.73V5.96799H158.706V5.27199ZM159.846 3.47199H160.59V8.51199H159.846V3.47199ZM156.306 4.52799H158.268V5.17599H156.306V4.52799ZM157.164 6.57399L157.878 5.72199V9.05199H157.164V6.57399ZM157.164 3.41799H157.878V4.82799H157.164V3.41799ZM157.8 5.92599C157.856 5.96199 157.932 6.02199 158.028 6.10599C158.128 6.18599 158.234 6.27599 158.346 6.37599C158.458 6.47199 158.56 6.56199 158.652 6.64599C158.744 6.72599 158.81 6.78399 158.85 6.81999L158.418 7.40799C158.358 7.33199 158.284 7.24399 158.196 7.14399C158.112 7.03999 158.022 6.93399 157.926 6.82599C157.83 6.71799 157.736 6.61599 157.644 6.51999C157.552 6.42399 157.474 6.34399 157.41 6.27999L157.8 5.92599ZM158.01 4.52799H158.148L158.274 4.49799L158.676 4.76199C158.528 5.15399 158.334 5.52799 158.094 5.88399C157.854 6.23599 157.59 6.55399 157.302 6.83799C157.014 7.12199 156.72 7.35799 156.42 7.54599C156.4 7.48199 156.368 7.40599 156.324 7.31799C156.284 7.22599 156.242 7.13999 156.198 7.05999C156.158 6.97599 156.118 6.90999 156.078 6.86199C156.354 6.71799 156.618 6.52999 156.87 6.29799C157.122 6.06199 157.348 5.80399 157.548 5.52399C157.748 5.23999 157.902 4.94999 158.01 4.65399V4.52799ZM163.752 7.55199H164.46V8.19399C164.46 8.27399 164.48 8.32399 164.52 8.34399C164.56 8.36399 164.65 8.37399 164.79 8.37399C164.822 8.37399 164.874 8.37399 164.946 8.37399C165.018 8.37399 165.096 8.37399 165.18 8.37399C165.268 8.37399 165.35 8.37399 165.426 8.37399C165.506 8.37399 165.568 8.37399 165.612 8.37399C165.68 8.37399 165.732 8.36399 165.768 8.34399C165.808 8.32399 165.836 8.27999 165.852 8.21199C165.872 8.14399 165.886 8.04399 165.894 7.91199C165.942 7.94799 166.002 7.98199 166.074 8.01399C166.15 8.04599 166.228 8.07399 166.308 8.09799C166.388 8.12199 166.46 8.13999 166.524 8.15199C166.496 8.37599 166.45 8.54799 166.386 8.66799C166.326 8.78799 166.24 8.86999 166.128 8.91399C166.016 8.96199 165.866 8.98599 165.678 8.98599C165.646 8.98599 165.596 8.98599 165.528 8.98599C165.464 8.98599 165.392 8.98599 165.312 8.98599C165.232 8.98599 165.15 8.98599 165.066 8.98599C164.986 8.98599 164.914 8.98599 164.85 8.98599C164.786 8.98599 164.738 8.98599 164.706 8.98599C164.45 8.98599 164.252 8.96199 164.112 8.91399C163.976 8.86999 163.882 8.78999 163.83 8.67399C163.778 8.55799 163.752 8.39999 163.752 8.19999V7.55199ZM164.418 7.48599L164.88 7.10199C165.032 7.17799 165.188 7.27199 165.348 7.38399C165.508 7.49599 165.632 7.60599 165.72 7.71399L165.228 8.13399C165.148 8.03399 165.03 7.92399 164.874 7.80399C164.722 7.67999 164.57 7.57399 164.418 7.48599ZM166.26 7.82199L166.836 7.49199C166.968 7.59199 167.098 7.70399 167.226 7.82799C167.354 7.95199 167.47 8.07799 167.574 8.20599C167.682 8.33399 167.766 8.45399 167.826 8.56599L167.202 8.92599C167.15 8.81399 167.074 8.69199 166.974 8.55999C166.874 8.43199 166.762 8.30399 166.638 8.17599C166.518 8.04399 166.392 7.92599 166.26 7.82199ZM162.936 7.55199L163.56 7.77999C163.48 8.00399 163.376 8.21999 163.248 8.42799C163.124 8.63599 162.96 8.81199 162.756 8.95599L162.174 8.54799C162.358 8.43599 162.514 8.28999 162.642 8.10999C162.77 7.92999 162.868 7.74399 162.936 7.55199ZM162.816 5.62599H167.154V7.37799H162.78V6.92799H166.446V6.07599H162.816V5.62599ZM163.032 6.28599H166.68V6.69999H163.032V6.28599ZM162.438 3.66399H164.808V4.08999H162.438V3.66399ZM162.582 4.27599H164.736V4.68999H162.582V4.27599ZM163.32 3.41799H163.98V5.54799H163.32V3.41799ZM165.042 3.66399H167.502V4.08999H165.042V3.66399ZM164.994 4.88799H167.622V5.30799H164.994V4.88799ZM165.162 4.27599H167.406V4.68999H165.162V4.27599ZM165.894 3.41799H166.566V5.54799H165.894V3.41799ZM162.36 4.93599C162.572 4.93199 162.812 4.92599 163.08 4.91799C163.348 4.90599 163.632 4.89399 163.932 4.88199C164.232 4.86999 164.536 4.85799 164.844 4.84599L164.832 5.28399C164.388 5.30799 163.95 5.33199 163.518 5.35599C163.086 5.37599 162.706 5.39199 162.378 5.40399L162.36 4.93599ZM170.232 5.93199H173.82V6.49599H170.232V5.93199ZM170.862 6.77199H173.172V7.32999H170.862V6.77199ZM171.018 6.15999L171.606 6.30399C171.47 6.64399 171.286 6.95599 171.054 7.23999C170.822 7.52399 170.57 7.75799 170.298 7.94199C170.27 7.90199 170.23 7.85599 170.178 7.80399C170.126 7.74799 170.072 7.69199 170.016 7.63599C169.96 7.57999 169.91 7.53599 169.866 7.50399C170.122 7.35199 170.35 7.15999 170.55 6.92799C170.754 6.69599 170.91 6.43999 171.018 6.15999ZM171.45 7.01199L171.996 7.16799C171.824 7.52799 171.598 7.85999 171.318 8.16399C171.042 8.46799 170.748 8.71799 170.436 8.91399C170.408 8.87399 170.37 8.82599 170.322 8.76999C170.278 8.71399 170.23 8.65599 170.178 8.59599C170.13 8.53999 170.086 8.49599 170.046 8.46399C170.342 8.29999 170.614 8.09199 170.862 7.83999C171.11 7.58399 171.306 7.30799 171.45 7.01199ZM172.332 7.02399L172.896 7.16199C172.764 7.54199 172.588 7.89599 172.368 8.22399C172.148 8.54799 171.908 8.81799 171.648 9.03399C171.616 8.99799 171.572 8.95399 171.516 8.90199C171.464 8.85399 171.41 8.80399 171.354 8.75199C171.298 8.70399 171.248 8.66399 171.204 8.63199C171.452 8.44799 171.674 8.21599 171.87 7.93599C172.07 7.65199 172.224 7.34799 172.332 7.02399ZM172.998 6.77199H173.658C173.658 6.77199 173.656 6.80399 173.652 6.86799C173.648 6.93199 173.644 6.98199 173.64 7.01799C173.624 7.40199 173.602 7.71799 173.574 7.96599C173.55 8.20999 173.52 8.39999 173.484 8.53599C173.452 8.67199 173.41 8.76799 173.358 8.82399C173.302 8.89199 173.244 8.93999 173.184 8.96799C173.128 8.99599 173.062 9.01599 172.986 9.02799C172.918 9.04399 172.832 9.05199 172.728 9.05199C172.628 9.05599 172.52 9.05599 172.404 9.05199C172.4 8.95599 172.382 8.85199 172.35 8.73999C172.322 8.63199 172.288 8.53799 172.248 8.45799C172.332 8.46599 172.408 8.47199 172.476 8.47599C172.544 8.47999 172.598 8.48199 172.638 8.48199C172.674 8.48199 172.704 8.47799 172.728 8.46999C172.756 8.45799 172.78 8.43799 172.8 8.40999C172.832 8.37799 172.858 8.30799 172.878 8.19999C172.902 8.08799 172.924 7.92599 172.944 7.71399C172.968 7.50199 172.986 7.22199 172.998 6.87399V6.77199ZM171.348 4.89999V5.18799H172.71V4.89999H171.348ZM171.348 4.14399V4.42599H172.71V4.14399H171.348ZM170.694 3.63399H173.394V5.69799H170.694V3.63399ZM168.426 3.66999H169.842V4.31799H169.056V9.05199H168.426V3.66999ZM169.626 3.66999H169.74L169.842 3.64599L170.31 3.91599C170.262 4.08399 170.208 4.26599 170.148 4.46199C170.088 4.65799 170.026 4.84999 169.962 5.03799C169.902 5.22599 169.844 5.39799 169.788 5.55399C169.972 5.78199 170.092 5.99799 170.148 6.20199C170.204 6.40599 170.232 6.59599 170.232 6.77199C170.232 6.96399 170.21 7.12399 170.166 7.25199C170.126 7.37999 170.058 7.47799 169.962 7.54599C169.914 7.57799 169.86 7.60399 169.8 7.62399C169.744 7.64399 169.684 7.65999 169.62 7.67199C169.508 7.68399 169.376 7.68799 169.224 7.68399C169.22 7.59999 169.204 7.49799 169.176 7.37799C169.152 7.25799 169.116 7.15599 169.068 7.07199C169.124 7.07599 169.172 7.07799 169.212 7.07799C169.256 7.07799 169.296 7.07799 169.332 7.07799C169.404 7.07399 169.46 7.05599 169.5 7.02399C169.536 6.99599 169.56 6.95399 169.572 6.89799C169.588 6.83799 169.596 6.76599 169.596 6.68199C169.596 6.54199 169.568 6.38199 169.512 6.20199C169.46 6.02199 169.35 5.83199 169.182 5.63199C169.222 5.49599 169.262 5.34799 169.302 5.18799C169.346 5.02399 169.388 4.85999 169.428 4.69599C169.472 4.53199 169.51 4.37999 169.542 4.23999C169.578 4.09599 169.606 3.97599 169.626 3.87999V3.66999ZM176.46 8.16999H179.874V8.87799H176.46V8.16999ZM176.706 5.27199H179.73V5.96799H176.706V5.27199ZM177.846 3.47199H178.59V8.51199H177.846V3.47199ZM174.306 4.52799H176.268V5.17599H174.306V4.52799ZM175.164 6.57399L175.878 5.72199V9.05199H175.164V6.57399ZM175.164 3.41799H175.878V4.82799H175.164V3.41799ZM175.8 5.92599C175.856 5.96199 175.932 6.02199 176.028 6.10599C176.128 6.18599 176.234 6.27599 176.346 6.37599C176.458 6.47199 176.56 6.56199 176.652 6.64599C176.744 6.72599 176.81 6.78399 176.85 6.81999L176.418 7.40799C176.358 7.33199 176.284 7.24399 176.196 7.14399C176.112 7.03999 176.022 6.93399 175.926 6.82599C175.83 6.71799 175.736 6.61599 175.644 6.51999C175.552 6.42399 175.474 6.34399 175.41 6.27999L175.8 5.92599ZM176.01 4.52799H176.148L176.274 4.49799L176.676 4.76199C176.528 5.15399 176.334 5.52799 176.094 5.88399C175.854 6.23599 175.59 6.55399 175.302 6.83799C175.014 7.12199 174.72 7.35799 174.42 7.54599C174.4 7.48199 174.368 7.40599 174.324 7.31799C174.284 7.22599 174.242 7.13999 174.198 7.05999C174.158 6.97599 174.118 6.90999 174.078 6.86199C174.354 6.71799 174.618 6.52999 174.87 6.29799C175.122 6.06199 175.348 5.80399 175.548 5.52399C175.748 5.23999 175.902 4.94999 176.01 4.65399V4.52799Z" fill="#212121"/>
<path d="M142.082 21.4495L147.951 15.4339H150.988L144.172 22.26L151.027 30.512H147.98L142.551 23.803L142.082 24.2718V30.512H139.807V15.4339H142.082V21.4495ZM159.886 26.2737H153.069C153.128 27.055 153.382 27.6767 153.831 28.1389C154.28 28.5947 154.856 28.8225 155.559 28.8225C156.106 28.8225 156.559 28.6923 156.917 28.4319C157.268 28.1715 157.669 27.6897 158.118 26.9866L159.973 28.0218C159.687 28.51 159.384 28.93 159.065 29.2815C158.746 29.6266 158.404 29.913 158.04 30.1409C157.675 30.3623 157.281 30.525 156.858 30.6292C156.435 30.7333 155.976 30.7854 155.481 30.7854C154.062 30.7854 152.923 30.3297 152.063 29.4182C151.204 28.5003 150.774 27.2828 150.774 25.7659C150.774 24.262 151.191 23.0445 152.024 22.1136C152.864 21.1956 153.977 20.7366 155.364 20.7366C156.764 20.7366 157.871 21.1826 158.684 22.0745C159.492 22.9599 159.895 24.1871 159.895 25.7561L159.886 26.2737ZM157.63 24.4768C157.324 23.305 156.585 22.719 155.413 22.719C155.146 22.719 154.895 22.7613 154.661 22.846C154.427 22.9241 154.212 23.0413 154.016 23.1975C153.828 23.3473 153.665 23.5296 153.528 23.7444C153.391 23.9593 153.287 24.2034 153.216 24.4768H157.63ZM163.695 21.0003V30.512H161.498V21.0003H163.695ZM161.166 17.0452C161.166 16.6611 161.306 16.3291 161.586 16.0491C161.865 15.7692 162.201 15.6292 162.591 15.6292C162.989 15.6292 163.327 15.7692 163.607 16.0491C163.887 16.3225 164.027 16.6578 164.027 17.055C164.027 17.4521 163.887 17.7906 163.607 18.0706C163.334 18.3505 162.998 18.4905 162.601 18.4905C162.204 18.4905 161.865 18.3505 161.586 18.0706C161.306 17.7906 161.166 17.4488 161.166 17.0452ZM168.676 28.7444L164.399 21.0003H166.948L169.858 26.469L172.573 21.0003H175.053L167.475 35.6878H164.965L168.676 28.7444ZM174.917 25.6878C174.917 24.3141 175.409 23.1455 176.392 22.1819C177.375 21.2184 178.573 20.7366 179.986 20.7366C181.405 20.7366 182.609 21.2216 183.599 22.1917C184.575 23.1617 185.064 24.3531 185.064 25.7659C185.064 27.1917 184.572 28.3863 183.589 29.3499C182.599 30.3069 181.385 30.7854 179.946 30.7854C178.521 30.7854 177.326 30.2971 176.362 29.3206C175.399 28.357 174.917 27.1461 174.917 25.6878ZM177.163 25.7268C177.163 26.6774 177.417 27.4293 177.925 27.9827C178.446 28.5426 179.133 28.8225 179.986 28.8225C180.845 28.8225 181.532 28.5458 182.046 27.9925C182.56 27.4391 182.818 26.7001 182.818 25.7757C182.818 24.8512 182.56 24.1123 182.046 23.5589C181.525 22.999 180.838 22.719 179.986 22.719C179.146 22.719 178.465 22.999 177.945 23.5589C177.424 24.1188 177.163 24.8414 177.163 25.7268ZM188.795 21.0003V26.4593C188.795 28.0348 189.417 28.8225 190.66 28.8225C191.904 28.8225 192.525 28.0348 192.525 26.4593V21.0003H194.723V26.5081C194.723 27.2698 194.628 27.9274 194.439 28.4807C194.257 28.9755 193.941 29.4215 193.492 29.8186C192.75 30.4632 191.806 30.7854 190.66 30.7854C189.521 30.7854 188.58 30.4632 187.838 29.8186C187.382 29.4215 187.06 28.9755 186.871 28.4807C186.689 28.038 186.598 27.3805 186.598 26.5081V21.0003H188.795ZM202.223 22.6214L200.407 23.5882C200.121 23.0022 199.766 22.7093 199.343 22.7093C199.141 22.7093 198.968 22.7776 198.825 22.9143C198.682 23.0445 198.61 23.2138 198.61 23.4221C198.61 23.7867 199.033 24.1481 199.88 24.5061C201.045 25.0074 201.83 25.4697 202.233 25.8929C202.637 26.316 202.839 26.8857 202.839 27.6018C202.839 28.5198 202.5 29.288 201.823 29.9065C201.165 30.4925 200.371 30.7854 199.44 30.7854C197.845 30.7854 196.716 30.0074 196.052 28.4514L197.927 27.5823C198.187 28.038 198.386 28.3277 198.522 28.4514C198.789 28.6988 199.108 28.8225 199.479 28.8225C200.221 28.8225 200.593 28.484 200.593 27.8069C200.593 27.4163 200.306 27.0517 199.733 26.7132C199.512 26.6025 199.29 26.4951 199.069 26.3909C198.848 26.2867 198.623 26.1793 198.395 26.0686C197.757 25.7561 197.308 25.4436 197.048 25.1311C196.716 24.734 196.55 24.2229 196.55 23.5979C196.55 22.7711 196.833 22.0875 197.399 21.5471C197.979 21.0068 198.682 20.7366 199.509 20.7366C200.726 20.7366 201.631 21.3649 202.223 22.6214ZM207.019 28.7444L202.742 21.0003H205.291L208.201 26.469L210.916 21.0003H213.396L205.818 35.6878H203.308L207.019 28.7444ZM220.76 21.0003H222.967V30.512H220.76V29.5159C219.855 30.3623 218.882 30.7854 217.84 30.7854C216.525 30.7854 215.438 30.3102 214.579 29.3596C213.726 28.3896 213.299 27.1787 213.299 25.7268C213.299 24.3011 213.726 23.1129 214.579 22.1624C215.431 21.2119 216.499 20.7366 217.782 20.7366C218.888 20.7366 219.881 21.1923 220.76 22.1038V21.0003ZM215.545 25.7268C215.545 26.6383 215.789 27.3805 216.278 27.9534C216.779 28.5328 217.411 28.8225 218.172 28.8225C218.986 28.8225 219.644 28.5426 220.145 27.9827C220.646 27.4033 220.897 26.6676 220.897 25.7757C220.897 24.8837 220.646 24.1481 220.145 23.5686C219.644 23.0022 218.993 22.719 218.192 22.719C217.437 22.719 216.805 23.0055 216.297 23.5784C215.796 24.1578 215.545 24.874 215.545 25.7268Z" fill="#212121"/>
<defs>
<clipPath id="clip0_26_221">
<rect width="24" height="39" fill="white" transform="translate(108 0.0119934)"/>
</clipPath>
</defs>
</svg>
